# xmcd
#
# Track frame offsets:
#	150
#	16583
#	35402
#	56250
#	75073
#	91385
#	114588
#	133933
#	151926
#	167827
#	188257
#	204454
#
# Disc length: 3241 seconds
#
# Revision: 0
# Processed by: cddbd v1.4PL0 Copyright (c) Steve Scherf et al.
# Submitted via: dBpowerAMP V4.0
#
DISCID=810ca70c
DTITLE=Mark Hummel - Golden State Blues
DYEAR=2002
DGENRE=Blues
TTITLE0=Beepin' On Me
TTITLE1=Honey Do Woman
TTITLE2=Right Back Where I Started
TTITLE3=Too Late Brother
TTITLE4=Don't Know What To Do About You
TTITLE5=Please...
TTITLE6=Sometimes Baby
TTITLE7=Baby, I'm Mad With You
TTITLE8=I Don't Know
TTITLE9=Linda Lu
TTITLE10=Blue Jimmy
TTITLE11=Stockholm Train
EXTD=
EXTT0=
EXTT1=
EXTT2=
EXTT3=
EXTT4=
EXTT5=
EXTT6=
EXTT7=
EXTT8=
EXTT9=
EXTT10=
EXTT11=
PLAYORDER=
